<svg xmlns="http://www.w3.org/2000/svg" xmlns:xlink="http://www.w3.org/1999/xlink" xmlns:fi="http://pattern.flaticon.com/" x="0" y="0" width="300" height="300" viewBox="0 0 350 350"><rect x="0px" y="0px" width="100%" height="100%" opacity="1" fill="#2b3e4f"/><defs><g transform="matrix(0.1854662448167801 0 0 0.1854662448167801 196 187)" id="L1_0"><path d="M274.469,48.581c10.703,10.697,28.052,10.693,38.749-0.011h0.04c0.003-0.004,0.007-0.007,0.011-0.011     c10.697-10.703,10.693-28.052-0.011-38.749l-0.32-0.28c-10.781-10.626-28.134-10.501-38.76,0.28s-10.501,28.134,0.28,38.76     C274.462,48.574,274.466,48.577,274.469,48.581z M281.619,17.17c6.561-6.694,17.306-6.801,24-0.24l0.24,0.24     c3.189,3.185,4.979,7.508,4.975,12.015c-0.008,9.367-7.608,16.953-16.975,16.945l0.08-0.12c-4.511,0.062-8.86-1.681-12.08-4.84     C275.165,34.609,275.058,23.864,281.619,17.17z"/><path d="M213.899,128.53c1.502,2.463,4.717,3.242,7.18,1.74s3.242-4.717,1.74-7.18c-17.969-29.558-54.526-42.007-86.8-29.56     c-2.684,1.038-4.018,4.056-2.98,6.74c1.038,2.684,4.056,4.018,6.74,2.98l-0.04,0.04     C167.31,92.657,198.539,103.285,213.899,128.53z"/><path d="M162.179,289.13c-7.489,7.489-7.489,19.631,0,27.12c7.489,7.489,19.631,7.489,27.12,0v-0.04     c7.478-7.489,7.469-19.622-0.02-27.1C181.79,281.632,169.657,281.641,162.179,289.13z M181.899,308.89     c-1.637,1.625-3.853,2.532-6.16,2.52l-0.04,0.04c-2.322-0.003-4.548-0.928-6.189-2.571c-3.418-3.424-3.413-8.971,0.012-12.388     c3.424-3.418,8.971-3.413,12.388,0.011C185.328,299.926,185.323,305.473,181.899,308.89z"/><path d="M322.619,98.01c-3.4-8.36-14.28-12.72-31.4-13.04c-20.11,0.345-40.111,3.03-59.6,8     c-6.926-7.215-14.927-13.314-23.72-18.08c-0.216-0.138-0.442-0.259-0.676-0.364c-2.641-1.183-5.741-0.001-6.924,2.64     c-1.183,2.641-0.001,5.741,2.64,6.924l0.08,0.04c14.222,7.714,26,19.257,34,33.32c0.182,0.444,0.424,0.862,0.72,1.24     c1.77,3.321,3.32,6.755,4.64,10.28c0.72,1.867,1.373,3.773,1.96,5.72l0.6,2c-25.539,13.154-51.809,24.84-78.68,35     c-26.76,10.499-54.098,19.46-81.88,26.84l-0.88-1.84c-0.827-1.787-1.613-3.64-2.36-5.56c-3.763-9.725-5.728-20.053-5.8-30.48     c0.017-0.24,0.017-0.48,0-0.72c0.012-5.273,0.507-10.535,1.478-15.718c8.792-46.945,53.977-77.874,100.922-69.082     c2.839,0.475,5.525-1.441,6-4.28s-1.441-5.525-4.28-6c-4.882-0.906-9.827-1.436-14.791-1.584     c-53.482-1.597-98.132,40.463-99.729,93.944c-17.604,9.332-34.085,20.646-49.12,33.72c-12.76,11.88-18.16,22.64-14.88,31.12     c4.96,12.4,27.72,15.64,60.96,10.84c9.2-1.32,19.24-3.24,30-5.72c17.56,18.268,41.579,28.929,66.907,29.698     c53.481,1.622,98.151-40.417,99.773-93.898c9.64-5.48,18.36-10.8,26.08-16C312.539,128.21,327.419,110.41,322.619,98.01z      M71.219,194.73c0.773,2.053,1.64,4.107,2.6,6.16c-17.84,4.24-28.96,5.84-29.56,4.24c-0.04,0,1.96-1.16,5.48-4     c6.161-4.682,12.673-8.881,19.48-12.56C69.779,190.624,70.445,192.677,71.219,194.73z M225.78,218.262     c-32.047,35.354-86.687,38.035-122.041,5.988h0.16c24.917-6.5,49.438-14.433,73.44-23.76c24.058-9.194,47.564-19.772,70.4-31.68     C245.903,187.22,238.205,204.554,225.78,218.262z M278.979,138.37c-25.24,17.12-62.52,35.96-105.24,52.4     c-26.363,10.326-53.383,18.892-80.88,25.64h-0.8c-11.4,2.68-22,4.72-31.64,6.12c-28.16,4.08-46.96,3-49.76-4.24     c-1.56-4.08,2.84-10.96,12.28-19.72c13.015-11.402,27.232-21.354,42.4-29.68c0.267,3.013,0.693,6.04,1.28,9.08     c-8.122,4.341-15.881,9.331-23.2,14.92c-7.4,5.96-10.44,11.4-8.68,16c2.88,7.4,20.36,7.28,46.36,1.12     c30.219-7.663,59.919-17.242,88.92-28.68c29.173-10.979,57.617-23.805,85.16-38.4c23.44-12.92,36.48-24.6,33.64-32     c-1.76-4.64-7.8-6.64-17.44-6.04c-9.091,0.78-18.106,2.278-26.96,4.48c-1.6-2.613-3.32-5.147-5.16-7.6     c17.018-4.033,34.431-6.166,51.92-6.36c12.6,0.24,20.28,2.4,21.84,6.4C315.779,109.05,302.579,122.37,278.979,138.37z      M249.339,119.09h0.16c7.328-1.737,14.775-2.927,22.28-3.56c4.72-0.32,7.12-0.64,7.12-0.64c0.6,1.56-8.76,7.76-24.76,16.68     c-0.667-2.107-1.4-4.213-2.2-6.32C251.139,123.144,250.272,121.09,249.339,119.09z"/><path d="M35.779,70.09c8.175,7.84,21.119,7.697,29.12-0.32c0.008-0.008,0.016-0.016,0.024-0.024     c8.116-8.13,8.105-21.299-0.024-29.416c-0.008-0.008-0.016-0.016-0.024-0.024c-8.13-8.116-21.299-8.105-29.416,0.024     c-0.008,0.008-0.016,0.016-0.024,0.024c-8.116,8.13-8.105,21.299,0.024,29.416L35.779,70.09z M42.859,47.49     c4.058-4.043,10.622-4.043,14.68,0c1.923,1.941,3.005,4.56,3.012,7.292c0.015,5.744-4.629,10.412-10.372,10.428     c-2.644,0.013-5.193-0.989-7.12-2.8l-0.2-0.24C38.816,58.112,38.816,51.549,42.859,47.49z"/></g><path d="M48.856,22.731c0.983-0.958,1.33-2.364,0.906-3.671c-0.425-1.307-1.532-2.24-2.892-2.438l-12.092-1.757  c-0.515-0.075-0.96-0.398-1.19-0.865L28.182,3.043c-0.607-1.231-1.839-1.996-3.212-1.996c-1.372,0-2.604,0.765-3.211,1.996  L16.352,14c-0.23,0.467-0.676,0.79-1.191,0.865L3.069,16.623C1.71,16.82,0.603,17.753,0.178,19.06  c-0.424,1.307-0.077,2.713,0.906,3.671l8.749,8.528c0.373,0.364,0.544,0.888,0.456,1.4L8.224,44.702  c-0.232,1.353,0.313,2.694,1.424,3.502c1.11,0.809,2.555,0.914,3.772,0.273l10.814-5.686c0.461-0.242,1.011-0.242,1.472,0  l10.815,5.686c0.528,0.278,1.1,0.415,1.669,0.415c0.739,0,1.475-0.231,2.103-0.688c1.111-0.808,1.656-2.149,1.424-3.502  L39.651,32.66c-0.088-0.513,0.083-1.036,0.456-1.4L48.856,22.731z M37.681,32.998l2.065,12.042c0.104,0.606-0.131,1.185-0.629,1.547  c-0.499,0.361-1.12,0.405-1.665,0.121l-10.815-5.687c-0.521-0.273-1.095-0.411-1.667-0.411s-1.145,0.138-1.667,0.412l-10.813,5.686  c-0.547,0.284-1.168,0.24-1.666-0.121c-0.498-0.362-0.732-0.94-0.629-1.547l2.065-12.042c0.199-1.162-0.186-2.348-1.03-3.17  L2.48,21.299c-0.441-0.43-0.591-1.036-0.4-1.621c0.19-0.586,0.667-0.988,1.276-1.077l12.091-1.757  c1.167-0.169,2.176-0.901,2.697-1.959l5.407-10.957c0.272-0.552,0.803-0.881,1.418-0.881c0.616,0,1.146,0.329,1.419,0.881  l5.407,10.957c0.521,1.058,1.529,1.79,2.696,1.959l12.092,1.757c0.609,0.089,1.086,0.491,1.276,1.077  c0.19,0.585,0.041,1.191-0.4,1.621l-8.749,8.528C37.866,30.65,37.481,31.835,37.681,32.998z" transform="matrix(0.6709439497207662 0.4375721648803247 -0.4375721648803247 0.6709439497207662 38.94678450623602 14.554388492532318)" id="L1_1" fill="#000000"/></defs><g fi:class="KUsePattern" opacity="0.25"><pattern id="pattern_L1_0" width="350" height="350" patternUnits="userSpaceOnUse"><use xlink:href="#L1_0" x="-350" y="-350"/><use xlink:href="#L1_0" x="0" y="-350"/><use xlink:href="#L1_0" x="350" y="-350"/><use xlink:href="#L1_0" x="-350" y="0"/><use xlink:href="#L1_0" x="0" y="0"/><use xlink:href="#L1_0" x="350" y="0"/><use xlink:href="#L1_0" x="-350" y="350"/><use xlink:href="#L1_0" x="0" y="350"/><use xlink:href="#L1_0" x="350" y="350"/></pattern><rect x="0" y="0" width="100%" height="100%" fill="url(#pattern_L1_0)"/></g><g fi:class="KUsePattern" opacity="0.25"><pattern id="pattern_L1_1" width="350" height="350" patternUnits="userSpaceOnUse"><use xlink:href="#L1_1" x="-350" y="-350"/><use xlink:href="#L1_1" x="0" y="-350"/><use xlink:href="#L1_1" x="350" y="-350"/><use xlink:href="#L1_1" x="-350" y="0"/><use xlink:href="#L1_1" x="0" y="0"/><use xlink:href="#L1_1" x="350" y="0"/><use xlink:href="#L1_1" x="-350" y="350"/><use xlink:href="#L1_1" x="0" y="350"/><use xlink:href="#L1_1" x="350" y="350"/></pattern><rect x="0" y="0" width="100%" height="100%" fill="url(#pattern_L1_1)"/></g></svg>