<?xml version="1.0" encoding="UTF-8" standalone="no"?>
<!-- Created with Inkscape (http://www.inkscape.org/) -->

<svg
   xmlns:dc="http://purl.org/dc/elements/1.1/"
   xmlns:cc="http://creativecommons.org/ns#"
   xmlns:rdf="http://www.w3.org/1999/02/22-rdf-syntax-ns#"
   xmlns:svg="http://www.w3.org/2000/svg"
   xmlns="http://www.w3.org/2000/svg"
   xmlns:sodipodi="http://sodipodi.sourceforge.net/DTD/sodipodi-0.dtd"
   xmlns:inkscape="http://www.inkscape.org/namespaces/inkscape"
   width="13.675175mm"
   height="13.675175mm"
   viewBox="0 0 13.675175 13.675175"
   version="1.1"
   id="svg3842"
   inkscape:version="0.92.4 (5da689c313, 2019-01-14)"
   sodipodi:docname="planet2.svg">
  <defs
     id="defs3836" />
  <sodipodi:namedview
     id="base"
     pagecolor="#ffffff"
     bordercolor="#666666"
     borderopacity="1.0"
     inkscape:pageopacity="0.0"
     inkscape:pageshadow="2"
     inkscape:zoom="1"
     inkscape:cx="-68.442859"
     inkscape:cy="-234.15715"
     inkscape:document-units="mm"
     inkscape:current-layer="layer1"
     showgrid="false"
     inkscape:window-width="1920"
     inkscape:window-height="1017"
     inkscape:window-x="-8"
     inkscape:window-y="-8"
     inkscape:window-maximized="1" />
  <metadata
     id="metadata3839">
    <rdf:RDF>
      <cc:Work
         rdf:about="">
        <dc:format>image/svg+xml</dc:format>
        <dc:type
           rdf:resource="http://purl.org/dc/dcmitype/StillImage" />
        <dc:title></dc:title>
      </cc:Work>
    </rdf:RDF>
  </metadata>
  <g
     inkscape:label="Layer 1"
     inkscape:groupmode="layer"
     id="layer1"
     transform="translate(-10.549316,-73.204078)">
    <g
       id="planettwo"
       transform="matrix(0.05312811,0,0,0.05312811,-4.7515804,59.130441)">
      <g
   id="g3851"
   class="st0"
   style="opacity:0.4">
        <circle
   id="circle3849"
   r="128.7"
   cy="393.60001"
   cx="416.70001"
   class="st13"
   style="fill:#525d95" />

      </g>

      <g
   id="g3855"
   class="st0"
   style="opacity:0.4">
        <circle
   id="circle3853"
   r="111.4"
   cy="393.60001"
   cx="416.70001"
   class="st14"
   style="fill:#556e9a" />

      </g>

      <g
   id="g3869">
        <g
   id="g3863">
          <circle
   id="circle3857"
   r="91.800003"
   cy="393.60001"
   cx="416.70001"
   class="st15"
   style="fill:#639fa3" />

          <path
   id="path3859"
   d="m 507.4,407.8 c 0.7,-4.6 1.1,-9.4 1.1,-14.3 0,-25.4 -10.3,-48.4 -26.9,-65 -18.9,58.2 -71.4,100.1 -133.3,100.1 -5.7,0 -11.3,-0.4 -16.8,-1 11.3,28.3 36.3,49.7 66.8,55.9 1.6,0.1 3.3,0.1 4.9,0.1 47.7,0.1 88.4,-31.5 104.2,-75.8 z"
   class="st16"
   inkscape:connector-curvature="0"
   style="fill:#5a9198" />

          <path
   id="path3861"
   d="m 508.5,393.6 c 0,-11.1 -2,-21.7 -5.6,-31.6 -20.9,54 -71.5,92.1 -130.5,92.1 -9.3,0 -18.3,-1 -27.1,-2.7 16.8,20.8 42.5,34.1 71.4,34.1 50.7,-0.1 91.8,-41.2 91.8,-91.9 z"
   class="st17"
   inkscape:connector-curvature="0"
   style="fill:#55898f" />

        </g>


          <circle
   id="ellipse3865"
   cy="385.79999"
   cx="357.20001"
   class="st18"
   transform="matrix(0.8393,-0.5437,0.5437,0.8393,-152.3527,256.2105)"
   r="5.8000002"
   style="fill:#5c989e" />


          <circle
   id="ellipse3867"
   cy="427.70001"
   cx="419.89999"
   class="st17"
   transform="matrix(0.9509,-0.3094,0.3094,0.9509,-111.7406,150.9364)"
   r="9.8999996"
   style="fill:#55898f" />

      </g>

    </g>
  </g>
  <style
     id="style3844"
     type="text/css">
      .st0{opacity:0.4;}
      .st1{fill:#5538D7;}
      .st2{fill:#4F46E3;}
      .st3{fill:#77BBFF;}
      .st4{fill:#3998FF;}
      .st5{fill:#3285FE;}
      .st6{fill:#3C9AFF;}
      .st7{fill:#606182;}
      .st8{fill:#6D7974;}
      .st9{fill:#94AD70;}
      .st10{fill:#899F64;}
      .st11{fill:#80965D;}
      .st12{fill:#849960;}
      .st13{fill:#525D95;}
      .st14{fill:#556E9A;}
      .st15{fill:#639FA3;}
      .st16{fill:#5A9198;}
      .st17{fill:#55898F;}
      .st18{fill:#5C989E;}
    </style>
</svg>
